<svg width="640" height="420" viewBox="0 0 640 420" fill="none" xmlns="http://www.w3.org/2000/svg">
<rect width="640" height="420" rx="28" fill="#EAF9FF"/>
<circle cx="84" cy="84" r="38" fill="#00AEEF" opacity="0.15"/>
<circle cx="568" cy="330" r="52" fill="#00AEEF" opacity="0.1"/>
<rect x="80" y="92" width="480" height="250" rx="20" fill="white" stroke="#BFE8F9" stroke-width="2"/>
<rect x="104" y="122" width="188" height="188" rx="16" fill="#F1FBFF"/>
<rect x="128" y="146" width="140" height="16" rx="8" fill="#00AEEF" opacity="0.3"/>
<rect x="128" y="174" width="98" height="12" rx="6" fill="#0F2747" opacity="0.2"/>
<rect x="128" y="194" width="120" height="12" rx="6" fill="#0F2747" opacity="0.2"/>
<rect x="322" y="130" width="210" height="16" rx="8" fill="#00AEEF" opacity="0.25"/>
<rect x="322" y="158" width="180" height="12" rx="6" fill="#1E2A39" opacity="0.18"/>
<rect x="322" y="178" width="160" height="12" rx="6" fill="#1E2A39" opacity="0.18"/>
<rect x="322" y="208" width="110" height="38" rx="19" fill="#00AEEF"/>
<text x="377" y="232" text-anchor="middle" fill="white" font-size="13" font-family="Arial">Import</text>
<rect x="322" y="258" width="130" height="18" rx="9" fill="#00AEEF" opacity="0.2"/>
<rect x="462" y="258" width="70" height="18" rx="9" fill="#00AEEF" opacity="0.4"/>
</svg>
